# xmcd
#
# Track frame offsets:
#	150
#	12535
#	24167
#	37737
#	49260
#	59835
#	72232
#	86902
#	98815
#	113462
#	126472
#	140192
#	154450
#	167762
#	180770
#	193020
#	206362
#	220695
#	234525
#	246650
#	259192
#	272305
#	284150
#	295517
#	307667
#
# Disc length: 4246 seconds
# Revision: 0
# Processed by: cddbd v1.5.2PL0 Copyright (c) Steve Scherf et al.
# Submitted via: dBpowerAMP V12.0
#
DISCID=70109419
DTITLE=Eddy Arnold - The Tennessee Plowboy And His Guitar, The Tennessee Plowboy and His Guitar, Disc 2
DYEAR=2001
DGENRE=Country
TTITLE0=I'll Hold You In My Heart 1947
TTITLE1=Bouquet Of Roses 1948
TTITLE2=What A Fool I Was 1948
TTITLE3=Little Angel With A Dirty Face 1998
TTITLE4=Wondering What To Do 1998
TTITLE5=Prisoner's Song, The 1947
TTITLE6=Rockin' Alone In An Old Rockin' Chair 1947
TTITLE7=It Makes No Difference Now 1947
TTITLE8=Will The Circle Be Unbroken 1947
TTITLE9=Seven Years With The Wrong Woman 1947
TTITLE10=Molly Darling 1947
TTITLE11=I'm Thinking Tonight Of My blue Eyes 1947
TTITLE12=Who At My Door Is Standing 1947
TTITLE13=Then I Turned And Walked Slowly Away 1948
TTITLE14=Texarkana Baby 1948
TTITLE15=(In The) Hills Of Tomorrow 1950
TTITLE16=My Daddy Is Only A Picture 1948
TTITLE17=Say You'll Be Mine 1998
TTITLE18=There's Not A Thing (I Wouldn't Do For You) 1949
TTITLE19=I've Got A Lifetime To Forget 1998
TTITLE20=Anytime 1948
TTITLE21=A Heart Full Of Love 1948
TTITLE22=My Heart Cries For You 1998
TTITLE23=I've Got Other Fish To Fry 1998
TTITLE24=This IsThe Thanks I Get 1998
EXTD=
EXTT0=
EXTT1=
EXTT2=
EXTT3=
EXTT4=
EXTT5=
EXTT6=
EXTT7=
EXTT8=
EXTT9=
EXTT10=
EXTT11=
EXTT12=
EXTT13=
EXTT14=
EXTT15=
EXTT16=
EXTT17=
EXTT18=
EXTT19=
EXTT20=
EXTT21=
EXTT22=
EXTT23=
EXTT24=
PLAYORDER=
